<?xml version="1.0" encoding="UTF-8"?>
<svg id="Layer_1" data-name="Layer 1" xmlns="http://www.w3.org/2000/svg" viewBox="0 0 58.42 100.84">
  <defs>
    <style>
      .cls-1 {
        fill: #f05252;
        stroke-width: 0px;
      }
    </style>
  </defs>
  <path class="cls-1" d="m8,100.84c-.5-.2-.88-.25-1.09-.47-9.41-9.62-8.87-6.63-.44-15.24,10.14-10.35,20.39-20.6,30.81-30.66,3.37-3.26,3.67-5.45.13-8.88C25.68,34.25,14.36,22.49,2.64,11.13-.48,8.1-.23,6.18,2.83,3.58c2.73-2.32,4.59-5.86,8.83-1.54,14.81,15.1,29.86,29.96,44.86,44.88,1.87,1.86,2.92,3.35.49,5.75-15.88,15.68-31.65,31.47-47.47,47.21-.44.44-1.07.69-1.52.97Z"/>
</svg>