<?xml version="1.0" encoding="UTF-8"?>
<svg id="Layer_1" data-name="Layer 1" xmlns="http://www.w3.org/2000/svg" viewBox="0 0 100.84 58.42">
  <defs>
    <style>
      .cls-1 {
        fill: #f05252;
        stroke-width: 0px;
      }
    </style>
  </defs>
  <path class="cls-1" d="m0,8c.2-.5.25-.88.47-1.09C10.09-2.5,7.1-1.96,15.7,6.47c10.35,10.14,20.6,20.39,30.66,30.81,3.26,3.37,5.45,3.67,8.88.13,11.35-11.73,23.11-23.05,34.47-34.77,3.03-3.12,4.95-2.88,7.55.19,2.32,2.73,5.86,4.59,1.54,8.83-15.1,14.81-29.96,29.86-44.88,44.86-1.86,1.87-3.35,2.92-5.75.49C32.5,41.12,16.71,25.35.97,9.53c-.44-.44-.69-1.07-.97-1.52Z"/>
</svg>