<?xml version="1.0" encoding="utf-8"?>
<!-- Generator: Adobe Illustrator 27.9.0, SVG Export Plug-In . SVG Version: 6.00 Build 0)  -->
<svg version="1.1" id="Layer_1" xmlns="http://www.w3.org/2000/svg" xmlns:xlink="http://www.w3.org/1999/xlink" x="0px" y="0px"
	 viewBox="0 0 122.88 122.88" style="enable-background:new 0 0 122.88 122.88;" xml:space="preserve">
<style type="text/css">
	.st0{fill-rule:evenodd;clip-rule:evenodd;fill:#B9F23D;}
</style>
<path class="st0" d="M61.44,0c33.93,0,61.44,27.51,61.44,61.44s-27.51,61.44-61.44,61.44S0,95.37,0,61.44c0,0,0,0,0,0
	C0,27.51,27.51,0,61.44,0z M30.73,38L62,63.47L91.91,38H30.73z M28.73,80.89L51,58.55L28.71,40.39v40.48L28.73,80.89z M53.43,60.55
	l-22.95,23h61.73l-21.94-23L63,66.71l0,0c-0.58,0.48-1.42,0.48-2,0l-7.59-6.19L53.43,60.55z M72.67,58.55l21.5,22.54v-40.9
	l-21.5,18.32V58.55z"/>
</svg>
