<?xml version="1.0" encoding="utf-8"?>
<!-- Generator: Adobe Illustrator 27.9.0, SVG Export Plug-In . SVG Version: 6.00 Build 0)  -->
<svg version="1.1" id="Layer_1" xmlns="http://www.w3.org/2000/svg" xmlns:xlink="http://www.w3.org/1999/xlink" x="0px" y="0px"
	 viewBox="0 0 122.88 122.88" style="enable-background:new 0 0 122.88 122.88;" xml:space="preserve">
<style type="text/css">
	.st0{fill:#B9F23D;}
</style>
<path class="st0" d="M61.47,0C27.55,0,0.06,27.49,0.06,61.41c0,33.92,27.49,61.41,61.41,61.41c33.92,0,61.41-27.5,61.41-61.41
	C122.88,27.49,95.39,0,61.47,0z M94.9,77.49c0,6.01-5.13,11.14-11.14,11.14H41.22c-6.02,0-10.45-5.06-10.45-11.14V53.75l-7.66-13.29
	c-1.58-2.15-0.25-4.18,2.09-4.18h58.62c6.01,0,11.14,5.12,11.08,11.2V77.49z"/>
<path class="st0" d="M83.12,53.05H42.67c-1.77,0-3.48-1.08-3.48-2.79s1.71-2.79,3.48-2.79h40.45c1.77,0,3.48,1.08,3.48,2.79
	C86.6,51.98,84.9,53.05,83.12,53.05L83.12,53.05L83.12,53.05z M83.12,64.19H42.67c-1.77,0-3.48-1.08-3.48-2.79s1.71-2.79,3.48-2.79
	h40.45c1.77,0,3.48,1.08,3.48,2.79C86.6,63.12,84.9,64.19,83.12,64.19L83.12,64.19L83.12,64.19z M71.92,75.4H42.61
	c-1.77,0-3.48-1.08-3.48-2.79s1.71-2.79,3.48-2.79h29.31c1.77,0,3.48,1.08,3.48,2.79S73.69,75.4,71.92,75.4L71.92,75.4z"/>
</svg>
