<?xml version="1.0" encoding="utf-8"?>
<!-- Generator: Adobe Illustrator 27.9.0, SVG Export Plug-In . SVG Version: 6.00 Build 0)  -->
<svg version="1.1" id="Layer_1" xmlns="http://www.w3.org/2000/svg" xmlns:xlink="http://www.w3.org/1999/xlink" x="0px" y="0px"
	 viewBox="0 0 512 512" style="enable-background:new 0 0 512 512;" xml:space="preserve">
<style type="text/css">
	.st0{fill:#B9F23D;}
</style>
<g>
	
		<ellipse transform="matrix(0.9732 -0.2298 0.2298 0.9732 -51.3168 70.9217)" class="st0" cx="278.9" cy="255.83" rx="24.65" ry="24.65"/>
	
		<ellipse transform="matrix(0.9732 -0.2298 0.2298 0.9732 -53.6404 50.9654)" class="st0" cx="192.04" cy="255.83" rx="24.65" ry="24.65"/>
	<path class="st0" d="M505.32,175.59C491.43,89.11,422.93,20.61,336.45,6.72c-26.13-4.19-52.92-6.39-80.24-6.39
		c-26.88-0.01-53.71,2.13-80.24,6.39C89.5,20.61,20.99,89.12,7.1,175.59c-4.19,26.13-6.39,52.92-6.39,80.24
		c-0.01,26.88,2.13,53.71,6.39,80.24c13.89,86.47,82.4,154.98,168.87,168.87c26.13,4.19,52.92,6.39,80.24,6.39
		c26.88,0.01,53.71-2.13,80.24-6.39c86.48-13.89,154.98-82.39,168.87-168.87c4.19-26.13,6.39-52.92,6.39-80.24
		C511.71,228.96,509.58,202.13,505.32,175.59z M89.92,294.96c-4.43,0.01-8.43-2.67-10.12-6.77c-1.7-4.09-0.76-8.81,2.38-11.94
		l43.9-43.9H94.61c-8.65,0-15.65-7.01-15.65-15.65h58.45c4.45,0,8.42,2.65,10.12,6.76c1.7,4.09,0.77,8.81-2.37,11.94l-43.91,43.9
		h36.39c8.66,0.01,15.66,7.01,15.66,15.66H89.92z M192.04,296.13c-22.26,0-40.3-18.04-40.3-40.3c0-22.26,18.04-40.3,40.3-40.3
		c22.26,0,40.3,18.04,40.3,40.3C232.34,278.09,214.3,296.13,192.04,296.13z M278.9,296.13c-22.26,0-40.3-18.04-40.3-40.3
		c0-22.26,18.04-40.3,40.3-40.3s40.3,18.04,40.3,40.3C319.2,278.09,301.16,296.13,278.9,296.13z M433.46,294.96
		c-8.64,0-15.65-7-15.65-15.65v-33.26c0-8.2-6.67-14.87-14.87-14.87c-8.2,0-14.87,6.67-14.87,14.87v48.91
		c-8.64,0-15.65-7-15.65-15.65v-33.26c0-8.2-6.67-14.87-14.87-14.87s-14.87,6.67-14.87,14.87v33.26c0,8.64-7,15.65-15.65,15.65
		v-48.91c0-16.83,13.69-30.52,30.52-30.52c8.99,0,17.09,3.92,22.69,10.14c5.59-6.22,13.69-10.14,22.69-10.14
		c16.83,0,30.52,13.69,30.52,30.52h0.01V294.96z"/>
</g>
</svg>
